<svg width="170" height="30" viewBox="0 0 170 30" fill="none" xmlns="http://www.w3.org/2000/svg">
<path d="M9.44531 17.5938L6.39844 20.875V29H0.539062V0.5625H6.39844V13.4531L8.97656 9.91797L16.2227 0.5625H23.4297L13.332 13.1992L23.7227 29H16.75L9.44531 17.5938Z" fill="black"/>
<path d="M32.1602 29H26.3008V0.5625H32.1602V29Z" fill="black"/>
<path d="M59.7578 20.7969L63.5859 0.5625H69.4258L63.1172 29H57.2188L52.5898 9.97656L47.9609 29H42.0625L35.7539 0.5625H41.5938L45.4414 20.7578L50.1289 0.5625H55.0898L59.7578 20.7969Z" fill="black"/>
<path d="M95.9688 15.4258C95.9688 18.2253 95.474 20.6797 94.4844 22.7891C93.4948 24.8984 92.0755 26.526 90.2266 27.6719C88.3906 28.8177 86.2812 29.3906 83.8984 29.3906C81.5417 29.3906 79.4388 28.8242 77.5898 27.6914C75.7409 26.5586 74.3086 24.944 73.293 22.8477C72.2773 20.7383 71.763 18.3164 71.75 15.582V14.1758C71.75 11.3763 72.2513 8.91536 73.2539 6.79297C74.2695 4.65755 75.6953 3.02344 77.5312 1.89062C79.3802 0.744792 81.4896 0.171875 83.8594 0.171875C86.2292 0.171875 88.332 0.744792 90.168 1.89062C92.0169 3.02344 93.4427 4.65755 94.4453 6.79297C95.4609 8.91536 95.9688 11.3698 95.9688 14.1562V15.4258ZM90.0312 14.1367C90.0312 11.1549 89.4974 8.88932 88.4297 7.33984C87.362 5.79036 85.8385 5.01562 83.8594 5.01562C81.8932 5.01562 80.3763 5.78385 79.3086 7.32031C78.2409 8.84375 77.7005 11.0833 77.6875 14.0391V15.4258C77.6875 18.3294 78.2214 20.582 79.2891 22.1836C80.3568 23.7852 81.8932 24.5859 83.8984 24.5859C85.8646 24.5859 87.375 23.8177 88.4297 22.2812C89.4844 20.7318 90.0182 18.4792 90.0312 15.5234V14.1367Z" fill="black"/>
<path d="M110.754 18.5898H106.086V29H100.227V0.5625H110.793C114.152 0.5625 116.743 1.3112 118.566 2.80859C120.389 4.30599 121.301 6.42188 121.301 9.15625C121.301 11.0964 120.878 12.7174 120.031 14.0195C119.198 15.3086 117.928 16.3372 116.223 17.1055L122.375 28.7266V29H116.086L110.754 18.5898ZM106.086 13.8438H110.812C112.284 13.8438 113.423 13.4727 114.23 12.7305C115.038 11.9753 115.441 10.9401 115.441 9.625C115.441 8.28385 115.057 7.22917 114.289 6.46094C113.534 5.69271 112.368 5.30859 110.793 5.30859H106.086V13.8438Z" fill="black"/>
<path d="M131.633 24.293H144.074V29H125.773V0.5625H131.633V24.293Z" fill="black"/>
<path d="M147.453 29V0.5625H156.203C158.703 0.5625 160.936 1.12891 162.902 2.26172C164.882 3.38151 166.424 4.98307 167.531 7.06641C168.638 9.13672 169.191 11.4935 169.191 14.1367V15.4453C169.191 18.0885 168.645 20.4388 167.551 22.4961C166.47 24.5534 164.94 26.1484 162.961 27.2812C160.982 28.4141 158.749 28.987 156.262 29H147.453ZM153.312 5.30859V24.293H156.145C158.436 24.293 160.188 23.5443 161.398 22.0469C162.609 20.5495 163.228 18.4076 163.254 15.6211V14.1172C163.254 11.2266 162.655 9.03906 161.457 7.55469C160.259 6.05729 158.508 5.30859 156.203 5.30859H153.312Z" fill="black"/>
</svg>
